<?xml version="1.0" encoding="UTF-8"?><!DOCTYPE svg PUBLIC "-//W3C//DTD SVG 1.1//EN" "http://www.w3.org/Graphics/SVG/1.1/DTD/svg11.dtd"><svg xmlns="http://www.w3.org/2000/svg" xmlns:xlink="http://www.w3.org/1999/xlink"><defs>
<clipPath id="clip0">
<rect width="22" height="22" fill="white"/>
</clipPath>

<clipPath id="clip0">
<rect width="85.0017" height="19.6154" fill="white" transform="translate(0.996826)"/>
</clipPath>

<clipPath id="clip0">
<rect width="22" height="22" fill="white"/>
</clipPath>
</defs><symbol id="icon-calendar" viewBox="0 0 22 22">
<g clip-path="url(#clip0)">
<path d="M6.50624 5.5561C6.12578 5.5561 5.81738 5.24771 5.81738 4.86724V0.688856C5.81738 0.308392 6.12578 0 6.50624 0C6.8867 0 7.1951 0.308392 7.1951 0.688856V4.86724C7.1951 5.24771 6.8867 5.5561 6.50624 5.5561Z" fill="#F64B2D"/>
<path d="M15.4938 5.5561C15.1133 5.5561 14.8049 5.24771 14.8049 4.86724V0.688856C14.8049 0.308392 15.1133 0 15.4938 0C15.8743 0 16.1827 0.308392 16.1827 0.688856V4.86724C16.1827 5.24771 15.8743 5.5561 15.4938 5.5561Z" fill="#F64B2D"/>
<path d="M1.04443 9.55676V19.0616C1.04443 20.6818 2.3626 22 3.98288 22H18.0168C19.6371 22 20.9553 20.6818 20.9553 19.0616V9.55676H1.04443Z" fill="#F64B2D"/>
<path d="M20.9552 8.17909V5.02766C20.9552 3.40738 19.637 2.08922 18.0168 2.08922H17.5601V4.86724C17.5601 6.00678 16.6331 6.93381 15.4936 6.93381C14.354 6.93381 13.427 6.00678 13.427 4.86724V2.08917H8.57268V4.8672C8.57268 6.00674 7.64566 6.93377 6.50612 6.93377C5.36658 6.93377 4.43955 6.00674 4.43955 4.8672V2.08917H3.98288C2.3626 2.08917 1.04443 3.40734 1.04443 5.02762V8.17905H20.9552V8.17909Z" fill="#F64B2D"/>
</g>

</symbol><symbol id="icon-facebook" viewBox="0 0 9 17">
<path d="M5.84225 16.7065V9.40873H8.49469L8.89264 6.56379H5.84225V4.74772C5.84225 3.9243 6.08893 3.36315 7.36946 3.36315L9 3.36254V0.817927C8.71802 0.784099 7.75008 0.706543 6.62351 0.706543C4.27103 0.706543 2.66048 2.03212 2.66048 4.46596V6.56379H0V9.40873H2.66048V16.7065H5.84225Z" fill="#18214D"/>
</symbol><symbol id="icon-feat1" viewBox="0 0 42 36">
<path d="M35.8285 20.691C36.2504 20.811 36.7804 20.917 37.3366 20.917C37.9023 20.917 38.4952 20.8073 39.029 20.4914C40.6741 19.5176 40.8675 17.1114 40.8841 16.8403C40.9037 16.5215 40.7267 16.2232 40.4377 16.0874C40.1916 15.9719 37.9863 14.9868 36.3418 15.9603C36.1745 16.0593 36.0222 16.1732 35.8835 16.2982C35.7242 16.0877 35.4619 15.9633 35.1802 15.993C34.7523 16.0382 34.4419 16.4215 34.4871 16.8494C34.6172 18.0841 34.5422 19.3299 34.264 20.5524C33.1848 25.2959 29.2072 28.8195 24.3662 29.3203C23.9382 29.3645 23.6272 29.7473 23.6714 30.1753C23.7129 30.5761 24.0511 30.8743 24.4454 30.8743C24.4722 30.8743 24.4993 30.8729 24.5265 30.8701C26.2924 30.6874 27.9574 30.151 29.4449 29.3286C29.8111 30.2454 30.567 31.6356 31.9077 32.1416C32.2904 32.286 32.6849 32.3448 33.0738 32.3448C34.7437 32.3448 36.3106 31.2598 36.3912 31.2031C36.6527 31.0194 36.7754 30.6944 36.7006 30.3837C36.6722 30.2656 35.9816 27.4818 33.9558 26.7174C33.6182 26.5901 33.2714 26.5292 32.9273 26.5167C33.1086 26.3089 33.2833 26.0952 33.4512 25.8758C34.0718 26.3027 35.1321 26.8895 36.2718 26.8895C36.5276 26.8895 36.7875 26.8599 37.0472 26.7924C39.0076 26.2823 39.9129 23.8803 40.0097 23.6081C40.1167 23.307 40.0291 22.9711 39.7886 22.7608C39.5712 22.5706 37.6098 20.9191 35.6518 21.4247C35.6991 21.2507 35.743 21.0751 35.7833 20.8981C35.7989 20.8291 35.814 20.7601 35.8285 20.691ZM38.3142 23.5973C37.9923 24.2238 37.401 25.0903 36.6547 25.2845C35.9049 25.4793 34.9717 25.016 34.3794 24.6209C34.7013 23.9944 35.2926 23.1279 36.0389 22.9337C36.7885 22.7388 37.7219 23.2021 38.3142 23.5973ZM37.1354 17.3011C37.7243 16.9525 38.6296 17.1087 39.2495 17.3006C39.1204 17.9361 38.8232 18.8025 38.2353 19.1505C37.6465 19.4992 36.7413 19.3429 36.1212 19.151C36.2504 18.5155 36.5475 17.649 37.1354 17.3011ZM35.0165 30.2159C34.3383 30.5766 33.2589 30.9862 32.4576 30.6837C31.6562 30.3813 31.1169 29.3609 30.8468 28.6431C31.5249 28.2823 32.6042 27.8728 33.4056 28.1752C34.207 28.4776 34.7464 29.498 35.0165 30.2159Z" fill="#18214D"/>
<path d="M17.5191 29.3203C12.6781 28.8195 8.70045 25.2959 7.62127 20.5523C7.34308 19.3298 7.26806 18.084 7.39816 16.8494C7.44327 16.4214 7.13298 16.038 6.70514 15.993C6.42353 15.9635 6.16115 16.0878 6.00184 16.2982C5.86318 16.1732 5.71088 16.0593 5.54354 15.9603C3.89903 14.9868 1.6937 15.9719 1.44768 16.0874C1.15867 16.2231 0.981672 16.5215 1.00123 16.8403C1.0179 17.1114 1.21125 19.5176 2.85639 20.4914C3.39025 20.8074 3.98293 20.917 4.54881 20.917C5.10496 20.917 5.63492 20.811 6.05684 20.691C6.07141 20.7601 6.08644 20.8291 6.10218 20.898C6.14246 21.0751 6.18632 21.2506 6.2336 21.4247C4.27592 20.9191 2.31427 22.5706 2.09684 22.7608C1.85636 22.9712 1.7688 23.307 1.87576 23.6081C1.97251 23.8803 2.87789 26.2823 4.8383 26.7924C5.0981 26.86 5.35775 26.8895 5.61366 26.8895C6.75321 26.8895 7.81361 26.3027 8.43426 25.8758C8.60222 26.0952 8.77695 26.309 8.95823 26.5167C8.61414 26.5293 8.26732 26.5901 7.92969 26.7175C5.90384 27.4819 5.21324 30.2656 5.1848 30.3837C5.1101 30.6945 5.23271 31.0194 5.49423 31.2032C5.57486 31.2599 7.14155 32.3449 8.8117 32.3449C9.20051 32.3449 9.59524 32.286 9.97774 32.1416C11.3184 31.6357 12.0743 30.2455 12.4405 29.3287C13.9281 30.1511 15.593 30.6875 17.359 30.8702C17.3862 30.873 17.4133 30.8744 17.4401 30.8744C17.8343 30.8744 18.1726 30.5762 18.214 30.1754C18.2581 29.7474 17.9471 29.3645 17.5191 29.3203ZM5.23053 25.2845C4.4815 25.0896 3.89397 24.2308 3.57052 23.5977C4.16335 23.2021 5.09662 22.7385 5.84619 22.9337C6.59522 23.1286 7.18276 23.9874 7.50621 24.6205C6.91338 25.0161 5.98003 25.4794 5.23053 25.2845ZM3.6499 19.1506C3.06197 18.8025 2.76477 17.9359 2.63569 17.3011C3.25096 17.1119 4.16273 16.9536 4.7498 17.3011C5.33773 17.6492 5.63492 18.5158 5.76401 19.1506C5.14874 19.3396 4.23689 19.498 3.6499 19.1506ZM9.42759 30.6838C8.62613 30.9863 7.54625 30.5765 6.86874 30.2161C7.13921 29.4976 7.67845 28.4775 8.4796 28.1752C9.28106 27.873 10.361 28.2827 11.0385 28.643C10.768 29.3614 10.2287 30.3815 9.42759 30.6838Z" fill="#18214D"/>
<path d="M32.0659 20.6942V6.65241C32.0659 6.41792 31.9603 6.19589 31.7783 6.04796C31.5963 5.90002 31.3573 5.8419 31.1278 5.88981C30.8605 5.94559 30.5849 5.97387 30.3089 5.97387C28.3526 5.97387 26.6986 4.5762 26.3761 2.65042C26.3133 2.275 25.9883 2 25.6078 2H16.2777C15.8972 2 15.5723 2.275 15.5094 2.65042C15.187 4.57612 13.5329 5.97387 11.5767 5.97387C11.3007 5.97387 11.025 5.94559 10.7577 5.88981C10.5281 5.8419 10.2892 5.90002 10.1072 6.04796C9.92521 6.19589 9.81958 6.41792 9.81958 6.65241V20.6942C9.81958 22.2955 10.7552 23.7718 12.2031 24.4554L20.6102 28.4249C20.7155 28.4747 20.8292 28.4996 20.9428 28.4996C21.0565 28.4996 21.1702 28.4747 21.2755 28.4249L29.6826 24.4554C31.1304 23.7718 32.0659 22.2955 32.0659 20.6942ZM20.9428 26.859L12.8683 23.0465C11.9627 22.619 11.3776 21.6957 11.3776 20.6943V7.52836C11.4439 7.5307 11.5103 7.53187 11.5767 7.53187C14.0716 7.53187 16.2132 5.89604 16.8971 3.55807H24.9885C25.6724 5.89612 27.814 7.53187 30.3089 7.53187C30.3753 7.53187 30.4417 7.5307 30.508 7.52836V20.6942C30.508 21.6956 29.9229 22.619 29.0173 23.0465L20.9428 26.859Z" fill="#18214D"/>
<path d="M14.0261 20.6642V9.811C15.9516 9.21309 17.5818 7.92495 18.609 6.20679H23.2762C24.3034 7.92488 25.9335 9.21301 27.8591 9.811V20.6642L20.9426 23.9299L14.0261 20.6642Z" fill="white"/>
<path d="M21.9995 18H20.632V12.6516L18.9995 13.1653V12.037L21.8528 11H21.9995V18Z" fill="#18214D"/>
</symbol><symbol id="icon-feat2" viewBox="0 0 42 36">
<path d="M20.9646 6.08255C19.2108 6.08156 17.5057 6.6595 16.1139 7.72668C14.7222 8.79386 13.7216 10.2906 13.2675 11.9846C12.8134 13.6786 12.9311 15.4751 13.6024 17.0954C14.2737 18.7156 15.4611 20.0689 16.9802 20.9454V22.8169C16.9802 22.9216 17.0008 23.0252 17.0408 23.1219C17.0809 23.2186 17.1396 23.3064 17.2136 23.3804C17.2876 23.4544 17.3754 23.5131 17.4721 23.5532C17.5688 23.5932 17.6724 23.6138 17.7771 23.6138H20.1677V15.975L17.2137 13.0209C17.0643 12.8715 16.9803 12.6689 16.9803 12.4575C16.9803 12.2462 17.0643 12.0435 17.2137 11.8941C17.3631 11.7447 17.5658 11.6607 17.7771 11.6607C17.9884 11.6607 18.1911 11.7447 18.3405 11.8941L20.9646 14.5182L23.5887 11.8941C23.6627 11.8201 23.7505 11.7614 23.8472 11.7214C23.9438 11.6813 24.0475 11.6607 24.1521 11.6607C24.2567 11.6607 24.3603 11.6813 24.457 11.7214C24.5537 11.7614 24.6415 11.8201 24.7155 11.8941C24.7895 11.9681 24.8482 12.0559 24.8882 12.1526C24.9283 12.2493 24.9489 12.3529 24.9489 12.4575C24.9489 12.5622 24.9283 12.6658 24.8882 12.7625C24.8482 12.8591 24.7895 12.947 24.7155 13.0209L21.7615 15.975V23.6138H24.1521C24.2567 23.6138 24.3604 23.5932 24.4571 23.5532C24.5537 23.5131 24.6416 23.4544 24.7156 23.3804C24.7896 23.3064 24.8483 23.2186 24.8883 23.1219C24.9284 23.0252 24.949 22.9216 24.949 22.8169V20.9453C26.4681 20.0689 27.6554 18.7156 28.3267 17.0953C28.9981 15.4751 29.1158 13.6786 28.6617 11.9846C28.2075 10.2906 27.207 8.79387 25.8152 7.7267C24.4235 6.65952 22.7184 6.08157 20.9646 6.08255Z" fill="white"/>
<path d="M4.27153 33.7207L6.63018 26.6443C4.51962 23.1358 3.76555 18.9764 4.51014 14.9503C5.25473 10.9242 7.44654 7.30964 10.6723 4.78807C13.8981 2.26649 17.9349 1.01217 22.0217 1.2616C26.1084 1.51104 29.9627 3.24698 32.8579 6.14214C35.753 9.0373 37.489 12.8916 37.7384 16.9784C37.9879 21.0651 36.7335 25.102 34.212 28.3277C31.6904 31.5535 28.0758 33.7453 24.0497 34.4899C20.0236 35.2345 15.8642 34.4804 12.3557 32.3699L5.27952 34.7285C5.13917 34.775 4.98864 34.7816 4.84474 34.7476C4.70085 34.7135 4.56927 34.6401 4.46469 34.5355C4.36012 34.431 4.28667 34.2994 4.25256 34.1555C4.21845 34.0116 4.22502 33.8611 4.27153 33.7207ZM12.8838 30.8229C16.0399 32.8205 19.8218 33.5842 23.5057 32.9677C27.1896 32.3511 30.5168 30.3977 32.8505 27.4813C35.1841 24.5649 36.3603 20.8904 36.154 17.1609C35.9476 13.4315 34.3732 9.90908 31.7321 7.26793C29.0909 4.62678 25.5685 3.05237 21.8391 2.84603C18.1096 2.63969 14.4351 3.81591 11.5187 6.14957C8.60227 8.48323 6.64888 11.8104 6.03237 15.4943C5.41585 19.1783 6.17951 22.9602 8.17719 26.1162C8.24045 26.216 8.28069 26.3287 8.29501 26.446C8.30932 26.5634 8.29734 26.6824 8.25994 26.7945L6.28726 32.7128L12.2055 30.7401C12.3177 30.7027 12.4367 30.6907 12.554 30.705C12.6713 30.7193 12.784 30.7596 12.8838 30.8229Z" fill="#18214D"/>
<path d="M24.1519 26.8013H17.7769C17.5655 26.8013 17.3628 26.7173 17.2134 26.5679C17.0639 26.4185 16.98 26.2158 16.98 26.0044C16.98 25.7931 17.0639 25.5904 17.2134 25.4409C17.3628 25.2915 17.5655 25.2076 17.7769 25.2076H24.1519C24.3632 25.2076 24.5659 25.2915 24.7153 25.4409C24.8648 25.5904 24.9487 25.7931 24.9487 26.0044C24.9487 26.2158 24.8648 26.4185 24.7153 26.5679C24.5659 26.7173 24.3632 26.8013 24.1519 26.8013Z" fill="#18214D"/>
<path d="M22.5581 29.9888H19.3706C19.1593 29.9888 18.9566 29.9048 18.8071 29.7554C18.6577 29.6059 18.5737 29.4032 18.5737 29.1919C18.5737 28.9806 18.6577 28.7779 18.8071 28.6284C18.9566 28.479 19.1593 28.395 19.3706 28.395H22.5581C22.7695 28.395 22.9721 28.479 23.1216 28.6284C23.271 28.7779 23.355 28.9806 23.355 29.1919C23.355 29.4032 23.271 29.6059 23.1216 29.7554C22.9721 29.9048 22.7695 29.9888 22.5581 29.9888Z" fill="#18214D"/>
</symbol><symbol id="icon-gear" viewBox="0 0 22 22">
<path d="M0.473624 14.768L2.47362 18.2321C2.71202 18.6449 3.20862 18.8321 3.66009 18.6793L6.60302 17.6837C6.86309 17.8552 7.13276 18.0112 7.41029 18.1508L8.01936 21.1961C8.11282 21.6635 8.52329 22 8.99996 22H13C13.4766 22 13.8871 21.6635 13.9806 21.1961L14.5896 18.1508C14.8672 18.0112 15.1368 17.8551 15.3968 17.6837L18.3398 18.6793C18.7913 18.8319 19.288 18.6449 19.5263 18.2321L21.5263 14.7679C21.7646 14.3551 21.6785 13.8315 21.3204 13.5168L18.9864 11.4657C18.9954 11.3103 19 11.1547 19 11C19 10.8452 18.9954 10.6897 18.9864 10.5343L21.3203 8.4832C21.6784 8.16853 21.7645 7.64487 21.5262 7.23207L19.5262 3.76793C19.2878 3.35513 18.7912 3.16787 18.3397 3.32067L15.3968 4.31627C15.1368 4.1448 14.8672 3.9888 14.5896 3.8492L13.9806 0.803867C13.8871 0.336467 13.4766 0 13 0H8.99996C8.52329 0 8.11282 0.336467 8.01936 0.803867L7.41029 3.8492C7.13276 3.9888 6.86316 4.14487 6.60309 4.31627L3.66009 3.32067C3.20876 3.168 2.71202 3.35513 2.47362 3.76793L0.473624 7.23207C0.235291 7.64487 0.321424 8.16853 0.679491 8.4832L3.01336 10.5343C3.00442 10.6895 2.99996 10.845 2.99996 11C2.99996 11.155 3.00442 11.3106 3.01336 11.4657L0.679491 13.5168C0.321424 13.8315 0.235291 14.3551 0.473624 14.768ZM11 7C13.2056 7 15 8.7944 15 11C15 13.2056 13.2056 15 11 15C8.79436 15 6.99996 13.2056 6.99996 11C6.99996 8.7944 8.79436 7 11 7Z" fill="#F64B2D"/>
</symbol><symbol id="icon-google" viewBox="0 0 14 14">
<path fill-rule="evenodd" clip-rule="evenodd" d="M13.8751 5.60271H7.14791C7.14791 6.30231 7.14791 7.70152 7.14362 8.40113H11.0418C10.8925 9.10074 10.3628 10.0802 9.61449 10.5734C9.61377 10.5727 9.61306 10.5776 9.61163 10.5769C8.61671 11.2338 7.30372 11.3829 6.32881 11.187C4.80069 10.8833 3.59134 9.77516 3.10032 8.36755C3.10317 8.36545 3.10532 8.34586 3.10746 8.34446C2.80012 7.47135 2.80012 6.30231 3.10746 5.60271H3.10675C3.50272 4.31683 4.74851 3.14359 6.27878 2.82247C7.50957 2.56152 8.89832 2.84416 9.91968 3.79982C10.0555 3.6669 11.7995 1.96405 11.9303 1.82553C8.44088 -1.33459 2.85373 -0.222915 0.763104 3.85789H0.762389C0.762389 3.85789 0.763104 3.85789 0.758816 3.86558C-0.275418 5.86996 -0.232534 8.23183 0.765963 10.1404C0.763104 10.1425 0.76096 10.1438 0.758816 10.1459C1.66368 11.902 3.31045 13.2487 5.29458 13.7615C7.40236 14.3142 10.0848 13.9364 11.8817 12.3112C11.8824 12.3119 11.8831 12.3126 11.8838 12.3133C13.4062 10.9421 14.354 8.60612 13.8751 5.60271Z" fill="#18214D"/>
</symbol><symbol id="icon-review" viewBox="0 0 136 24">
<path d="M11.6418 0.720979C11.7889 0.424956 12.2111 0.424956 12.3582 0.720978L15.4479 6.93937C15.5061 7.0566 15.618 7.13791 15.7475 7.15708L22.6163 8.1739C22.9433 8.22231 23.0738 8.62392 22.8377 8.85528L17.8784 13.7153C17.7849 13.8069 17.7422 13.9385 17.7639 14.0675L18.9195 20.9144C18.9745 21.2403 18.6328 21.4885 18.3398 21.3355L12.1852 18.1207C12.0692 18.0601 11.9308 18.0601 11.8148 18.1207L5.66016 21.3355C5.36718 21.4885 5.02554 21.2403 5.08055 20.9144L6.23607 14.0675C6.25785 13.9385 6.2151 13.8069 6.12161 13.7153L1.16232 8.85528C0.926233 8.62392 1.05673 8.22231 1.38371 8.1739L8.2525 7.15708C8.38199 7.13791 8.49391 7.0566 8.55215 6.93937L11.6418 0.720979Z" fill="#F64B2D"/>
<path d="M39.6418 0.720979C39.7889 0.424956 40.2111 0.424956 40.3582 0.720978L43.4479 6.93937C43.5061 7.0566 43.618 7.13791 43.7475 7.15708L50.6163 8.1739C50.9433 8.22231 51.0738 8.62392 50.8377 8.85528L45.8784 13.7153C45.7849 13.8069 45.7422 13.9385 45.7639 14.0675L46.9195 20.9144C46.9745 21.2403 46.6328 21.4885 46.3398 21.3355L40.1852 18.1207C40.0692 18.0601 39.9308 18.0601 39.8148 18.1207L33.6602 21.3355C33.3672 21.4885 33.0255 21.2403 33.0806 20.9144L34.2361 14.0675C34.2579 13.9385 34.2151 13.8069 34.1216 13.7153L29.1623 8.85528C28.9262 8.62392 29.0567 8.22231 29.3837 8.1739L36.2525 7.15708C36.382 7.13791 36.4939 7.0566 36.5521 6.93937L39.6418 0.720979Z" fill="#F64B2D"/>
<path d="M67.6418 0.720979C67.7889 0.424956 68.2111 0.424956 68.3582 0.720978L71.4479 6.93937C71.5061 7.0566 71.618 7.13791 71.7475 7.15708L78.6163 8.1739C78.9433 8.22231 79.0738 8.62392 78.8377 8.85528L73.8784 13.7153C73.7849 13.8069 73.7422 13.9385 73.7639 14.0675L74.9195 20.9144C74.9745 21.2403 74.6328 21.4885 74.3398 21.3355L68.1852 18.1207C68.0692 18.0601 67.9308 18.0601 67.8148 18.1207L61.6602 21.3355C61.3672 21.4885 61.0255 21.2403 61.0806 20.9144L62.2361 14.0675C62.2579 13.9385 62.2151 13.8069 62.1216 13.7153L57.1623 8.85528C56.9262 8.62392 57.0567 8.22231 57.3837 8.1739L64.2525 7.15708C64.382 7.13791 64.4939 7.0566 64.5521 6.93937L67.6418 0.720979Z" fill="#F64B2D"/>
<path d="M95.6415 0.720979C95.7886 0.424956 96.2109 0.424956 96.358 0.720978L99.4476 6.93937C99.5059 7.0566 99.6178 7.13791 99.7473 7.15708L106.616 8.1739C106.943 8.22231 107.074 8.62392 106.837 8.85528L101.878 13.7153C101.785 13.8069 101.742 13.9385 101.764 14.0675L102.919 20.9144C102.974 21.2403 102.633 21.4885 102.34 21.3355L96.1849 18.1207C96.0689 18.0601 95.9306 18.0601 95.8146 18.1207L89.6599 21.3355C89.3669 21.4885 89.0253 21.2403 89.0803 20.9144L90.2358 14.0675C90.2576 13.9385 90.2149 13.8069 90.1214 13.7153L85.1621 8.85528C84.926 8.62392 85.0565 8.22231 85.3835 8.1739L92.2523 7.15708C92.3817 7.13791 92.4937 7.0566 92.5519 6.93937L95.6415 0.720979Z" fill="#F64B2D"/>
<path d="M123.642 0.720979C123.789 0.424956 124.211 0.424956 124.358 0.720978L127.448 6.93937C127.506 7.0566 127.618 7.13791 127.747 7.15708L134.616 8.1739C134.943 8.22231 135.074 8.62392 134.837 8.85528L129.878 13.7153C129.785 13.8069 129.742 13.9385 129.764 14.0675L130.919 20.9144C130.974 21.2403 130.633 21.4885 130.34 21.3355L124.185 18.1207C124.069 18.0601 123.931 18.0601 123.815 18.1207L117.66 21.3355C117.367 21.4885 117.025 21.2403 117.08 20.9144L118.236 14.0675C118.258 13.9385 118.215 13.8069 118.121 13.7153L113.162 8.85528C112.926 8.62392 113.056 8.22231 113.383 8.1739L120.252 7.15708C120.382 7.13791 120.494 7.0566 120.552 6.93937L123.642 0.720979Z" fill="#F64B2D"/>
</symbol><symbol id="icon-startpack" viewBox="0 0 86 20">
<g clip-path="url(#clip0)">
<path d="M7.13768 0L10.3273 4.11923H9.88567L9.59124 4.56058L6.5979 0.294231L6.79419 0H7.13768Z" fill="#5D5D5D"/>
<path d="M19.3564 0.343273L16.7556 4.41347L16.6084 4.11923H16.0686L18.7675 0.0490417H19.1601L19.3564 0.343273Z" fill="#D1D1D1"/>
<path d="M24.6071 10.102H19.7981L19.9453 9.80772L19.7981 9.51349H24.6561L24.8034 9.80772L24.6071 10.102Z" fill="#D1D1D1"/>
<path d="M16.4121 15.3L18.8657 19.2721L18.6694 19.6154H18.2277L16.0686 15.7904L16.4121 15.3Z" fill="#D1D1D1"/>
<path d="M13.1735 10.151L10.6218 14.2702L10.4255 13.9269H9.93481L12.5356 9.80771H12.9772L13.1735 10.151Z" fill="#5D5D5D"/>
<path d="M1.29834 9.46445L6.25452 9.51349L6.05824 9.80772L6.20545 10.2H1.34741L1.10205 9.80772L1.29834 9.46445Z" fill="#D1D1D1"/>
<path d="M6.74512 0L9.88567 4.11923H16.5594L19.1601 0H6.74512Z" fill="#5D5D5D"/>
<path d="M19.9452 9.80769H24.8524L19.1601 0L16.5593 4.11923L19.9452 9.80769Z" fill="#747474"/>
<path d="M19.9452 9.80771H24.8523L18.6694 19.6154L16.2649 15.4962L19.9452 9.80771Z" fill="#929292"/>
<path d="M10.3765 13.9269L14.0077 19.6154H18.6695L12.9772 9.80771L10.3765 13.9269Z" fill="#5B5B5B"/>
<path d="M1.10205 9.80771L3.70282 13.9269H10.3765L12.9773 9.80771H1.10205Z" fill="#5D5D5D"/>
<path d="M9.88579 4.11923L6.05824 9.80769H1.10205L6.74524 0L9.88579 4.11923Z" fill="#393939"/>
<path d="M9.68951 -0.196136H1.00391V9.95483H9.68951V-0.196136Z" fill="#969696"/>
<path d="M34.5196 6.42461C34.078 6.2775 33.1457 6.13038 32.3605 6.13038C30.9375 6.13038 30.1523 6.42461 30.1523 7.50346C30.1523 8.23904 30.5449 8.63134 32.1642 8.77846C34.1762 8.97461 35.0594 9.71019 35.0594 11.2794C35.0594 13.1919 33.7836 13.8785 31.4772 13.8785C30.594 13.8785 29.6125 13.7313 28.9255 13.4862L29.22 12.4073C29.7597 12.6035 30.6921 12.7015 31.4282 12.7015C32.8512 12.7015 33.6854 12.4073 33.6854 11.3285C33.6854 10.5929 33.2929 10.0535 31.6244 9.90634C29.6616 9.75923 28.7292 9.17077 28.7292 7.60154C28.7292 5.68904 30.0051 4.95346 32.2624 4.95346C33.0966 4.95346 34.078 5.10058 34.7159 5.29673L34.5196 6.42461Z" fill="#5D5D5D"/>
<path d="M38.1018 8.53269V11.5731C38.1018 12.4558 38.3471 12.8481 39.1322 12.8481C39.5248 12.8481 39.9174 12.799 40.2609 12.701L40.4572 13.6327C40.0646 13.7798 39.4267 13.8779 38.936 13.8779C37.562 13.8779 36.924 13.4856 36.924 11.6221V8.53269H35.8445V7.50288H36.924V6.32596L38.1018 5.83557V7.50288H40.2609V8.53269H38.1018Z" fill="#5D5D5D"/>
<path d="M46.5912 13.4366C45.8551 13.7308 44.7756 13.9269 43.9414 13.9269C42.0766 13.9269 41.3896 13.4856 41.3896 11.8673C41.3896 10.1019 42.4201 9.8077 43.8432 9.8077C44.4321 9.8077 44.9228 9.85674 45.5116 10.0039C45.5116 8.72886 45.1681 8.43463 43.8432 8.43463C43.2053 8.43463 42.5183 8.5327 42.0276 8.72886L41.7822 7.74809C42.322 7.60097 43.1562 7.45386 44.0395 7.45386C45.8551 7.45386 46.6893 7.99328 46.6893 9.85674V13.4366H46.5912ZM45.4626 10.8375C45.07 10.7394 44.5302 10.6904 44.0395 10.6904C43.009 10.6904 42.6164 10.7885 42.6164 11.7692C42.6164 12.7991 42.9109 12.9952 43.9904 12.9952C44.4811 12.9952 45.0209 12.8971 45.4626 12.75V10.8375Z" fill="#5D5D5D"/>
<path d="M48.3577 7.50289H49.4863V7.94423C49.7317 7.65 50.2714 7.30673 51.1547 7.30673C51.351 7.30673 51.5964 7.30673 51.7927 7.35577V8.48366C51.5964 8.43462 51.3019 8.43462 51.0566 8.43462C50.2224 8.43462 49.4863 8.67981 49.4863 9.17019V13.7308H48.3577V7.50289Z" fill="#5D5D5D"/>
<path d="M54.2473 8.53269V11.5731C54.2473 12.4558 54.4926 12.8481 55.2778 12.8481C55.6703 12.8481 56.0629 12.799 56.4064 12.701L56.6027 13.6327C56.2101 13.7798 55.5722 13.8779 55.0815 13.8779C53.7075 13.8779 53.0696 13.4856 53.0696 11.6221V8.53269H51.99V7.50288H53.0696V6.32596L54.2473 5.83557V7.50288H56.4064V8.53269H54.2473Z" fill="#5D5D5D"/>
<path d="M57.7314 7.79712C58.4184 7.50289 59.498 7.35577 60.3322 7.35577C62.2951 7.35577 63.2274 8.09135 63.2274 10.5923C63.2274 13.1423 62.2951 13.8779 60.4794 13.8779C59.6943 13.8779 59.2036 13.6817 58.9092 13.4365V16.0356H57.7805V7.79712H57.7314ZM58.8601 12.1615C58.8601 12.6519 59.498 12.8971 60.3322 12.8971C61.6081 12.8971 62.0006 12.4067 62.0006 10.6414C62.0006 8.72885 61.6081 8.38558 60.3322 8.38558C59.8415 8.38558 59.2526 8.43462 58.8601 8.58174V12.1615Z" fill="#5D5D5D"/>
<path d="M69.8522 13.4366C69.1161 13.7308 68.0365 13.9269 67.2023 13.9269C65.3376 13.9269 64.6506 13.4856 64.6506 11.8673C64.6506 10.1019 65.6811 9.8077 67.1042 9.8077C67.693 9.8077 68.1837 9.85674 68.7726 10.0039C68.7726 8.72886 68.4291 8.43463 67.1042 8.43463C66.4663 8.43463 65.7793 8.5327 65.2886 8.72886L65.0432 7.74809C65.583 7.60097 66.4172 7.45386 67.3005 7.45386C69.1161 7.45386 69.9503 7.99328 69.9503 9.85674V13.4366H69.8522ZM68.7235 10.8375C68.331 10.7394 67.7912 10.6904 67.3005 10.6904C66.27 10.6904 65.8774 10.7885 65.8774 11.7692C65.8774 12.7991 66.1718 12.9952 67.2514 12.9952C67.7421 12.9952 68.2819 12.8971 68.7235 12.75V10.8375Z" fill="#5D5D5D"/>
<path d="M76.2807 13.5837C75.7899 13.7798 75.0048 13.9269 74.465 13.9269C72.5512 13.9269 71.4226 13.1914 71.4226 10.6414C71.4226 8.09135 72.5512 7.40482 74.465 7.40482C75.0048 7.40482 75.839 7.55193 76.2807 7.69905L75.9862 8.72885C75.5937 8.5327 75.0048 8.43462 74.5141 8.43462C73.2382 8.43462 72.6494 8.72885 72.6494 10.6414C72.6494 12.4558 73.2382 12.8971 74.5141 12.8971C75.0539 12.8971 75.5937 12.75 75.9862 12.6029L76.2807 13.5837Z" fill="#5D5D5D"/>
<path d="M81.3842 13.7308C79.863 11.7202 78.8816 10.5923 78.5381 10.4452V13.7308H77.4094V4.90384H78.5381V10.4452C78.9306 10.151 79.863 9.17019 81.1879 7.50288H82.611C81.286 9.12115 80.3537 10.0529 80.0102 10.2981C80.3537 10.4942 81.3351 11.6221 82.8073 13.6817H81.3842V13.7308Z" fill="#5D5D5D"/>
</g>

</symbol><symbol id="icon-suitcase" viewBox="0 0 22 22">
<g clip-path="url(#clip0)">
<path d="M13.7502 5.95834C13.2442 5.95834 12.8335 5.54768 12.8335 5.04168V3.66668H9.16683V5.04168C9.16683 5.54768 8.75616 5.95834 8.25016 5.95834C7.74416 5.95834 7.3335 5.54768 7.3335 5.04168V3.66668C7.3335 2.65559 8.15574 1.83334 9.16683 1.83334H12.8335C13.8446 1.83334 14.6668 2.65559 14.6668 3.66668V5.04168C14.6668 5.54768 14.2561 5.95834 13.7502 5.95834Z" fill="#F64B2D"/>
<path d="M11.6508 14.0983C11.4858 14.1625 11.2475 14.2083 11 14.2083C10.7525 14.2083 10.5142 14.1625 10.2942 14.08L0 10.6517V17.6458C0 19.0392 1.1275 20.1667 2.52083 20.1667H19.4792C20.8725 20.1667 22 19.0392 22 17.6458V10.6517L11.6508 14.0983Z" fill="#F64B2D"/>
<path d="M22 7.10418V9.20334L11.22 12.7967C11.1467 12.8242 11.0733 12.8333 11 12.8333C10.9267 12.8333 10.8533 12.8242 10.78 12.7967L0 9.20334V7.10418C0 5.71084 1.1275 4.58334 2.52083 4.58334H19.4792C20.8725 4.58334 22 5.71084 22 7.10418Z" fill="#F64B2D"/>
</g>

</symbol></svg>