<svg width="42" height="36" viewBox="0 0 42 36" fill="none" xmlns="http://www.w3.org/2000/svg">
<path d="M20.9646 6.08255C19.2108 6.08156 17.5057 6.6595 16.1139 7.72668C14.7222 8.79386 13.7216 10.2906 13.2675 11.9846C12.8134 13.6786 12.9311 15.4751 13.6024 17.0954C14.2737 18.7156 15.4611 20.0689 16.9802 20.9454V22.8169C16.9802 22.9216 17.0008 23.0252 17.0408 23.1219C17.0809 23.2186 17.1396 23.3064 17.2136 23.3804C17.2876 23.4544 17.3754 23.5131 17.4721 23.5532C17.5688 23.5932 17.6724 23.6138 17.7771 23.6138H20.1677V15.975L17.2137 13.0209C17.0643 12.8715 16.9803 12.6689 16.9803 12.4575C16.9803 12.2462 17.0643 12.0435 17.2137 11.8941C17.3631 11.7447 17.5658 11.6607 17.7771 11.6607C17.9884 11.6607 18.1911 11.7447 18.3405 11.8941L20.9646 14.5182L23.5887 11.8941C23.6627 11.8201 23.7505 11.7614 23.8472 11.7214C23.9438 11.6813 24.0475 11.6607 24.1521 11.6607C24.2567 11.6607 24.3603 11.6813 24.457 11.7214C24.5537 11.7614 24.6415 11.8201 24.7155 11.8941C24.7895 11.9681 24.8482 12.0559 24.8882 12.1526C24.9283 12.2493 24.9489 12.3529 24.9489 12.4575C24.9489 12.5622 24.9283 12.6658 24.8882 12.7625C24.8482 12.8591 24.7895 12.947 24.7155 13.0209L21.7615 15.975V23.6138H24.1521C24.2567 23.6138 24.3604 23.5932 24.4571 23.5532C24.5537 23.5131 24.6416 23.4544 24.7156 23.3804C24.7896 23.3064 24.8483 23.2186 24.8883 23.1219C24.9284 23.0252 24.949 22.9216 24.949 22.8169V20.9453C26.4681 20.0689 27.6554 18.7156 28.3267 17.0953C28.9981 15.4751 29.1158 13.6786 28.6617 11.9846C28.2075 10.2906 27.207 8.79387 25.8152 7.7267C24.4235 6.65952 22.7184 6.08157 20.9646 6.08255Z" fill="white"/>
<path d="M4.27153 33.7207L6.63018 26.6443C4.51962 23.1358 3.76555 18.9764 4.51014 14.9503C5.25473 10.9242 7.44654 7.30964 10.6723 4.78807C13.8981 2.26649 17.9349 1.01217 22.0217 1.2616C26.1084 1.51104 29.9627 3.24698 32.8579 6.14214C35.753 9.0373 37.489 12.8916 37.7384 16.9784C37.9879 21.0651 36.7335 25.102 34.212 28.3277C31.6904 31.5535 28.0758 33.7453 24.0497 34.4899C20.0236 35.2345 15.8642 34.4804 12.3557 32.3699L5.27952 34.7285C5.13917 34.775 4.98864 34.7816 4.84474 34.7476C4.70085 34.7135 4.56927 34.6401 4.46469 34.5355C4.36012 34.431 4.28667 34.2994 4.25256 34.1555C4.21845 34.0116 4.22502 33.8611 4.27153 33.7207ZM12.8838 30.8229C16.0399 32.8205 19.8218 33.5842 23.5057 32.9677C27.1896 32.3511 30.5168 30.3977 32.8505 27.4813C35.1841 24.5649 36.3603 20.8904 36.154 17.1609C35.9476 13.4315 34.3732 9.90908 31.7321 7.26793C29.0909 4.62678 25.5685 3.05237 21.8391 2.84603C18.1096 2.63969 14.4351 3.81591 11.5187 6.14957C8.60227 8.48323 6.64888 11.8104 6.03237 15.4943C5.41585 19.1783 6.17951 22.9602 8.17719 26.1162C8.24045 26.216 8.28069 26.3287 8.29501 26.446C8.30932 26.5634 8.29734 26.6824 8.25994 26.7945L6.28726 32.7128L12.2055 30.7401C12.3177 30.7027 12.4367 30.6907 12.554 30.705C12.6713 30.7193 12.784 30.7596 12.8838 30.8229Z" fill="#18214D"/>
<path d="M24.1519 26.8013H17.7769C17.5655 26.8013 17.3628 26.7173 17.2134 26.5679C17.0639 26.4185 16.98 26.2158 16.98 26.0044C16.98 25.7931 17.0639 25.5904 17.2134 25.4409C17.3628 25.2915 17.5655 25.2076 17.7769 25.2076H24.1519C24.3632 25.2076 24.5659 25.2915 24.7153 25.4409C24.8648 25.5904 24.9487 25.7931 24.9487 26.0044C24.9487 26.2158 24.8648 26.4185 24.7153 26.5679C24.5659 26.7173 24.3632 26.8013 24.1519 26.8013Z" fill="#18214D"/>
<path d="M22.5581 29.9888H19.3706C19.1593 29.9888 18.9566 29.9048 18.8071 29.7554C18.6577 29.6059 18.5737 29.4032 18.5737 29.1919C18.5737 28.9806 18.6577 28.7779 18.8071 28.6284C18.9566 28.479 19.1593 28.395 19.3706 28.395H22.5581C22.7695 28.395 22.9721 28.479 23.1216 28.6284C23.271 28.7779 23.355 28.9806 23.355 29.1919C23.355 29.4032 23.271 29.6059 23.1216 29.7554C22.9721 29.9048 22.7695 29.9888 22.5581 29.9888Z" fill="#18214D"/>
</svg>
