<svg width="22" height="22" viewBox="0 0 22 22" fill="none" xmlns="http://www.w3.org/2000/svg">
<path d="M0.473624 14.768L2.47362 18.2321C2.71202 18.6449 3.20862 18.8321 3.66009 18.6793L6.60302 17.6837C6.86309 17.8552 7.13276 18.0112 7.41029 18.1508L8.01936 21.1961C8.11282 21.6635 8.52329 22 8.99996 22H13C13.4766 22 13.8871 21.6635 13.9806 21.1961L14.5896 18.1508C14.8672 18.0112 15.1368 17.8551 15.3968 17.6837L18.3398 18.6793C18.7913 18.8319 19.288 18.6449 19.5263 18.2321L21.5263 14.7679C21.7646 14.3551 21.6785 13.8315 21.3204 13.5168L18.9864 11.4657C18.9954 11.3103 19 11.1547 19 11C19 10.8452 18.9954 10.6897 18.9864 10.5343L21.3203 8.4832C21.6784 8.16853 21.7645 7.64487 21.5262 7.23207L19.5262 3.76793C19.2878 3.35513 18.7912 3.16787 18.3397 3.32067L15.3968 4.31627C15.1368 4.1448 14.8672 3.9888 14.5896 3.8492L13.9806 0.803867C13.8871 0.336467 13.4766 0 13 0H8.99996C8.52329 0 8.11282 0.336467 8.01936 0.803867L7.41029 3.8492C7.13276 3.9888 6.86316 4.14487 6.60309 4.31627L3.66009 3.32067C3.20876 3.168 2.71202 3.35513 2.47362 3.76793L0.473624 7.23207C0.235291 7.64487 0.321424 8.16853 0.679491 8.4832L3.01336 10.5343C3.00442 10.6895 2.99996 10.845 2.99996 11C2.99996 11.155 3.00442 11.3106 3.01336 11.4657L0.679491 13.5168C0.321424 13.8315 0.235291 14.3551 0.473624 14.768ZM11 7C13.2056 7 15 8.7944 15 11C15 13.2056 13.2056 15 11 15C8.79436 15 6.99996 13.2056 6.99996 11C6.99996 8.7944 8.79436 7 11 7Z" fill="#F64B2D"/>
</svg>
