<svg width="86" height="20" viewBox="0 0 86 20" fill="none" xmlns="http://www.w3.org/2000/svg">
<g clip-path="url(#clip0)">
<path d="M7.13768 0L10.3273 4.11923H9.88567L9.59124 4.56058L6.5979 0.294231L6.79419 0H7.13768Z" fill="#5D5D5D"/>
<path d="M19.3564 0.343273L16.7556 4.41347L16.6084 4.11923H16.0686L18.7675 0.0490417H19.1601L19.3564 0.343273Z" fill="#D1D1D1"/>
<path d="M24.6071 10.102H19.7981L19.9453 9.80772L19.7981 9.51349H24.6561L24.8034 9.80772L24.6071 10.102Z" fill="#D1D1D1"/>
<path d="M16.4121 15.3L18.8657 19.2721L18.6694 19.6154H18.2277L16.0686 15.7904L16.4121 15.3Z" fill="#D1D1D1"/>
<path d="M13.1735 10.151L10.6218 14.2702L10.4255 13.9269H9.93481L12.5356 9.80771H12.9772L13.1735 10.151Z" fill="#5D5D5D"/>
<path d="M1.29834 9.46445L6.25452 9.51349L6.05824 9.80772L6.20545 10.2H1.34741L1.10205 9.80772L1.29834 9.46445Z" fill="#D1D1D1"/>
<path d="M6.74512 0L9.88567 4.11923H16.5594L19.1601 0H6.74512Z" fill="#5D5D5D"/>
<path d="M19.9452 9.80769H24.8524L19.1601 0L16.5593 4.11923L19.9452 9.80769Z" fill="#747474"/>
<path d="M19.9452 9.80771H24.8523L18.6694 19.6154L16.2649 15.4962L19.9452 9.80771Z" fill="#929292"/>
<path d="M10.3765 13.9269L14.0077 19.6154H18.6695L12.9772 9.80771L10.3765 13.9269Z" fill="#5B5B5B"/>
<path d="M1.10205 9.80771L3.70282 13.9269H10.3765L12.9773 9.80771H1.10205Z" fill="#5D5D5D"/>
<path d="M9.88579 4.11923L6.05824 9.80769H1.10205L6.74524 0L9.88579 4.11923Z" fill="#393939"/>
<path d="M9.68951 -0.196136H1.00391V9.95483H9.68951V-0.196136Z" fill="#969696"/>
<path d="M34.5196 6.42461C34.078 6.2775 33.1457 6.13038 32.3605 6.13038C30.9375 6.13038 30.1523 6.42461 30.1523 7.50346C30.1523 8.23904 30.5449 8.63134 32.1642 8.77846C34.1762 8.97461 35.0594 9.71019 35.0594 11.2794C35.0594 13.1919 33.7836 13.8785 31.4772 13.8785C30.594 13.8785 29.6125 13.7313 28.9255 13.4862L29.22 12.4073C29.7597 12.6035 30.6921 12.7015 31.4282 12.7015C32.8512 12.7015 33.6854 12.4073 33.6854 11.3285C33.6854 10.5929 33.2929 10.0535 31.6244 9.90634C29.6616 9.75923 28.7292 9.17077 28.7292 7.60154C28.7292 5.68904 30.0051 4.95346 32.2624 4.95346C33.0966 4.95346 34.078 5.10058 34.7159 5.29673L34.5196 6.42461Z" fill="#5D5D5D"/>
<path d="M38.1018 8.53269V11.5731C38.1018 12.4558 38.3471 12.8481 39.1322 12.8481C39.5248 12.8481 39.9174 12.799 40.2609 12.701L40.4572 13.6327C40.0646 13.7798 39.4267 13.8779 38.936 13.8779C37.562 13.8779 36.924 13.4856 36.924 11.6221V8.53269H35.8445V7.50288H36.924V6.32596L38.1018 5.83557V7.50288H40.2609V8.53269H38.1018Z" fill="#5D5D5D"/>
<path d="M46.5912 13.4366C45.8551 13.7308 44.7756 13.9269 43.9414 13.9269C42.0766 13.9269 41.3896 13.4856 41.3896 11.8673C41.3896 10.1019 42.4201 9.8077 43.8432 9.8077C44.4321 9.8077 44.9228 9.85674 45.5116 10.0039C45.5116 8.72886 45.1681 8.43463 43.8432 8.43463C43.2053 8.43463 42.5183 8.5327 42.0276 8.72886L41.7822 7.74809C42.322 7.60097 43.1562 7.45386 44.0395 7.45386C45.8551 7.45386 46.6893 7.99328 46.6893 9.85674V13.4366H46.5912ZM45.4626 10.8375C45.07 10.7394 44.5302 10.6904 44.0395 10.6904C43.009 10.6904 42.6164 10.7885 42.6164 11.7692C42.6164 12.7991 42.9109 12.9952 43.9904 12.9952C44.4811 12.9952 45.0209 12.8971 45.4626 12.75V10.8375Z" fill="#5D5D5D"/>
<path d="M48.3577 7.50289H49.4863V7.94423C49.7317 7.65 50.2714 7.30673 51.1547 7.30673C51.351 7.30673 51.5964 7.30673 51.7927 7.35577V8.48366C51.5964 8.43462 51.3019 8.43462 51.0566 8.43462C50.2224 8.43462 49.4863 8.67981 49.4863 9.17019V13.7308H48.3577V7.50289Z" fill="#5D5D5D"/>
<path d="M54.2473 8.53269V11.5731C54.2473 12.4558 54.4926 12.8481 55.2778 12.8481C55.6703 12.8481 56.0629 12.799 56.4064 12.701L56.6027 13.6327C56.2101 13.7798 55.5722 13.8779 55.0815 13.8779C53.7075 13.8779 53.0696 13.4856 53.0696 11.6221V8.53269H51.99V7.50288H53.0696V6.32596L54.2473 5.83557V7.50288H56.4064V8.53269H54.2473Z" fill="#5D5D5D"/>
<path d="M57.7314 7.79712C58.4184 7.50289 59.498 7.35577 60.3322 7.35577C62.2951 7.35577 63.2274 8.09135 63.2274 10.5923C63.2274 13.1423 62.2951 13.8779 60.4794 13.8779C59.6943 13.8779 59.2036 13.6817 58.9092 13.4365V16.0356H57.7805V7.79712H57.7314ZM58.8601 12.1615C58.8601 12.6519 59.498 12.8971 60.3322 12.8971C61.6081 12.8971 62.0006 12.4067 62.0006 10.6414C62.0006 8.72885 61.6081 8.38558 60.3322 8.38558C59.8415 8.38558 59.2526 8.43462 58.8601 8.58174V12.1615Z" fill="#5D5D5D"/>
<path d="M69.8522 13.4366C69.1161 13.7308 68.0365 13.9269 67.2023 13.9269C65.3376 13.9269 64.6506 13.4856 64.6506 11.8673C64.6506 10.1019 65.6811 9.8077 67.1042 9.8077C67.693 9.8077 68.1837 9.85674 68.7726 10.0039C68.7726 8.72886 68.4291 8.43463 67.1042 8.43463C66.4663 8.43463 65.7793 8.5327 65.2886 8.72886L65.0432 7.74809C65.583 7.60097 66.4172 7.45386 67.3005 7.45386C69.1161 7.45386 69.9503 7.99328 69.9503 9.85674V13.4366H69.8522ZM68.7235 10.8375C68.331 10.7394 67.7912 10.6904 67.3005 10.6904C66.27 10.6904 65.8774 10.7885 65.8774 11.7692C65.8774 12.7991 66.1718 12.9952 67.2514 12.9952C67.7421 12.9952 68.2819 12.8971 68.7235 12.75V10.8375Z" fill="#5D5D5D"/>
<path d="M76.2807 13.5837C75.7899 13.7798 75.0048 13.9269 74.465 13.9269C72.5512 13.9269 71.4226 13.1914 71.4226 10.6414C71.4226 8.09135 72.5512 7.40482 74.465 7.40482C75.0048 7.40482 75.839 7.55193 76.2807 7.69905L75.9862 8.72885C75.5937 8.5327 75.0048 8.43462 74.5141 8.43462C73.2382 8.43462 72.6494 8.72885 72.6494 10.6414C72.6494 12.4558 73.2382 12.8971 74.5141 12.8971C75.0539 12.8971 75.5937 12.75 75.9862 12.6029L76.2807 13.5837Z" fill="#5D5D5D"/>
<path d="M81.3842 13.7308C79.863 11.7202 78.8816 10.5923 78.5381 10.4452V13.7308H77.4094V4.90384H78.5381V10.4452C78.9306 10.151 79.863 9.17019 81.1879 7.50288H82.611C81.286 9.12115 80.3537 10.0529 80.0102 10.2981C80.3537 10.4942 81.3351 11.6221 82.8073 13.6817H81.3842V13.7308Z" fill="#5D5D5D"/>
</g>
<defs>
<clipPath id="clip0">
<rect width="85.0017" height="19.6154" fill="white" transform="translate(0.996826)"/>
</clipPath>
</defs>
</svg>
