<svg width="136" height="24" viewBox="0 0 136 24" fill="none" xmlns="http://www.w3.org/2000/svg">
<path d="M11.6418 0.720979C11.7889 0.424956 12.2111 0.424956 12.3582 0.720978L15.4479 6.93937C15.5061 7.0566 15.618 7.13791 15.7475 7.15708L22.6163 8.1739C22.9433 8.22231 23.0738 8.62392 22.8377 8.85528L17.8784 13.7153C17.7849 13.8069 17.7422 13.9385 17.7639 14.0675L18.9195 20.9144C18.9745 21.2403 18.6328 21.4885 18.3398 21.3355L12.1852 18.1207C12.0692 18.0601 11.9308 18.0601 11.8148 18.1207L5.66016 21.3355C5.36718 21.4885 5.02554 21.2403 5.08055 20.9144L6.23607 14.0675C6.25785 13.9385 6.2151 13.8069 6.12161 13.7153L1.16232 8.85528C0.926233 8.62392 1.05673 8.22231 1.38371 8.1739L8.2525 7.15708C8.38199 7.13791 8.49391 7.0566 8.55215 6.93937L11.6418 0.720979Z" fill="#F64B2D"/>
<path d="M39.6418 0.720979C39.7889 0.424956 40.2111 0.424956 40.3582 0.720978L43.4479 6.93937C43.5061 7.0566 43.618 7.13791 43.7475 7.15708L50.6163 8.1739C50.9433 8.22231 51.0738 8.62392 50.8377 8.85528L45.8784 13.7153C45.7849 13.8069 45.7422 13.9385 45.7639 14.0675L46.9195 20.9144C46.9745 21.2403 46.6328 21.4885 46.3398 21.3355L40.1852 18.1207C40.0692 18.0601 39.9308 18.0601 39.8148 18.1207L33.6602 21.3355C33.3672 21.4885 33.0255 21.2403 33.0806 20.9144L34.2361 14.0675C34.2579 13.9385 34.2151 13.8069 34.1216 13.7153L29.1623 8.85528C28.9262 8.62392 29.0567 8.22231 29.3837 8.1739L36.2525 7.15708C36.382 7.13791 36.4939 7.0566 36.5521 6.93937L39.6418 0.720979Z" fill="#F64B2D"/>
<path d="M67.6418 0.720979C67.7889 0.424956 68.2111 0.424956 68.3582 0.720978L71.4479 6.93937C71.5061 7.0566 71.618 7.13791 71.7475 7.15708L78.6163 8.1739C78.9433 8.22231 79.0738 8.62392 78.8377 8.85528L73.8784 13.7153C73.7849 13.8069 73.7422 13.9385 73.7639 14.0675L74.9195 20.9144C74.9745 21.2403 74.6328 21.4885 74.3398 21.3355L68.1852 18.1207C68.0692 18.0601 67.9308 18.0601 67.8148 18.1207L61.6602 21.3355C61.3672 21.4885 61.0255 21.2403 61.0806 20.9144L62.2361 14.0675C62.2579 13.9385 62.2151 13.8069 62.1216 13.7153L57.1623 8.85528C56.9262 8.62392 57.0567 8.22231 57.3837 8.1739L64.2525 7.15708C64.382 7.13791 64.4939 7.0566 64.5521 6.93937L67.6418 0.720979Z" fill="#F64B2D"/>
<path d="M95.6415 0.720979C95.7886 0.424956 96.2109 0.424956 96.358 0.720978L99.4476 6.93937C99.5059 7.0566 99.6178 7.13791 99.7473 7.15708L106.616 8.1739C106.943 8.22231 107.074 8.62392 106.837 8.85528L101.878 13.7153C101.785 13.8069 101.742 13.9385 101.764 14.0675L102.919 20.9144C102.974 21.2403 102.633 21.4885 102.34 21.3355L96.1849 18.1207C96.0689 18.0601 95.9306 18.0601 95.8146 18.1207L89.6599 21.3355C89.3669 21.4885 89.0253 21.2403 89.0803 20.9144L90.2358 14.0675C90.2576 13.9385 90.2149 13.8069 90.1214 13.7153L85.1621 8.85528C84.926 8.62392 85.0565 8.22231 85.3835 8.1739L92.2523 7.15708C92.3817 7.13791 92.4937 7.0566 92.5519 6.93937L95.6415 0.720979Z" fill="#F64B2D"/>
<path d="M123.642 0.720979C123.789 0.424956 124.211 0.424956 124.358 0.720978L127.448 6.93937C127.506 7.0566 127.618 7.13791 127.747 7.15708L134.616 8.1739C134.943 8.22231 135.074 8.62392 134.837 8.85528L129.878 13.7153C129.785 13.8069 129.742 13.9385 129.764 14.0675L130.919 20.9144C130.974 21.2403 130.633 21.4885 130.34 21.3355L124.185 18.1207C124.069 18.0601 123.931 18.0601 123.815 18.1207L117.66 21.3355C117.367 21.4885 117.025 21.2403 117.08 20.9144L118.236 14.0675C118.258 13.9385 118.215 13.8069 118.121 13.7153L113.162 8.85528C112.926 8.62392 113.056 8.22231 113.383 8.1739L120.252 7.15708C120.382 7.13791 120.494 7.0566 120.552 6.93937L123.642 0.720979Z" fill="#F64B2D"/>
</svg>
