<svg width="42" height="36" viewBox="0 0 42 36" fill="none" xmlns="http://www.w3.org/2000/svg">
<path d="M35.8285 20.691C36.2504 20.811 36.7804 20.917 37.3366 20.917C37.9023 20.917 38.4952 20.8073 39.029 20.4914C40.6741 19.5176 40.8675 17.1114 40.8841 16.8403C40.9037 16.5215 40.7267 16.2232 40.4377 16.0874C40.1916 15.9719 37.9863 14.9868 36.3418 15.9603C36.1745 16.0593 36.0222 16.1732 35.8835 16.2982C35.7242 16.0877 35.4619 15.9633 35.1802 15.993C34.7523 16.0382 34.4419 16.4215 34.4871 16.8494C34.6172 18.0841 34.5422 19.3299 34.264 20.5524C33.1848 25.2959 29.2072 28.8195 24.3662 29.3203C23.9382 29.3645 23.6272 29.7473 23.6714 30.1753C23.7129 30.5761 24.0511 30.8743 24.4454 30.8743C24.4722 30.8743 24.4993 30.8729 24.5265 30.8701C26.2924 30.6874 27.9574 30.151 29.4449 29.3286C29.8111 30.2454 30.567 31.6356 31.9077 32.1416C32.2904 32.286 32.6849 32.3448 33.0738 32.3448C34.7437 32.3448 36.3106 31.2598 36.3912 31.2031C36.6527 31.0194 36.7754 30.6944 36.7006 30.3837C36.6722 30.2656 35.9816 27.4818 33.9558 26.7174C33.6182 26.5901 33.2714 26.5292 32.9273 26.5167C33.1086 26.3089 33.2833 26.0952 33.4512 25.8758C34.0718 26.3027 35.1321 26.8895 36.2718 26.8895C36.5276 26.8895 36.7875 26.8599 37.0472 26.7924C39.0076 26.2823 39.9129 23.8803 40.0097 23.6081C40.1167 23.307 40.0291 22.9711 39.7886 22.7608C39.5712 22.5706 37.6098 20.9191 35.6518 21.4247C35.6991 21.2507 35.743 21.0751 35.7833 20.8981C35.7989 20.8291 35.814 20.7601 35.8285 20.691ZM38.3142 23.5973C37.9923 24.2238 37.401 25.0903 36.6547 25.2845C35.9049 25.4793 34.9717 25.016 34.3794 24.6209C34.7013 23.9944 35.2926 23.1279 36.0389 22.9337C36.7885 22.7388 37.7219 23.2021 38.3142 23.5973ZM37.1354 17.3011C37.7243 16.9525 38.6296 17.1087 39.2495 17.3006C39.1204 17.9361 38.8232 18.8025 38.2353 19.1505C37.6465 19.4992 36.7413 19.3429 36.1212 19.151C36.2504 18.5155 36.5475 17.649 37.1354 17.3011ZM35.0165 30.2159C34.3383 30.5766 33.2589 30.9862 32.4576 30.6837C31.6562 30.3813 31.1169 29.3609 30.8468 28.6431C31.5249 28.2823 32.6042 27.8728 33.4056 28.1752C34.207 28.4776 34.7464 29.498 35.0165 30.2159Z" fill="#18214D"/>
<path d="M17.5191 29.3203C12.6781 28.8195 8.70045 25.2959 7.62127 20.5523C7.34308 19.3298 7.26806 18.084 7.39816 16.8494C7.44327 16.4214 7.13298 16.038 6.70514 15.993C6.42353 15.9635 6.16115 16.0878 6.00184 16.2982C5.86318 16.1732 5.71088 16.0593 5.54354 15.9603C3.89903 14.9868 1.6937 15.9719 1.44768 16.0874C1.15867 16.2231 0.981672 16.5215 1.00123 16.8403C1.0179 17.1114 1.21125 19.5176 2.85639 20.4914C3.39025 20.8074 3.98293 20.917 4.54881 20.917C5.10496 20.917 5.63492 20.811 6.05684 20.691C6.07141 20.7601 6.08644 20.8291 6.10218 20.898C6.14246 21.0751 6.18632 21.2506 6.2336 21.4247C4.27592 20.9191 2.31427 22.5706 2.09684 22.7608C1.85636 22.9712 1.7688 23.307 1.87576 23.6081C1.97251 23.8803 2.87789 26.2823 4.8383 26.7924C5.0981 26.86 5.35775 26.8895 5.61366 26.8895C6.75321 26.8895 7.81361 26.3027 8.43426 25.8758C8.60222 26.0952 8.77695 26.309 8.95823 26.5167C8.61414 26.5293 8.26732 26.5901 7.92969 26.7175C5.90384 27.4819 5.21324 30.2656 5.1848 30.3837C5.1101 30.6945 5.23271 31.0194 5.49423 31.2032C5.57486 31.2599 7.14155 32.3449 8.8117 32.3449C9.20051 32.3449 9.59524 32.286 9.97774 32.1416C11.3184 31.6357 12.0743 30.2455 12.4405 29.3287C13.9281 30.1511 15.593 30.6875 17.359 30.8702C17.3862 30.873 17.4133 30.8744 17.4401 30.8744C17.8343 30.8744 18.1726 30.5762 18.214 30.1754C18.2581 29.7474 17.9471 29.3645 17.5191 29.3203ZM5.23053 25.2845C4.4815 25.0896 3.89397 24.2308 3.57052 23.5977C4.16335 23.2021 5.09662 22.7385 5.84619 22.9337C6.59522 23.1286 7.18276 23.9874 7.50621 24.6205C6.91338 25.0161 5.98003 25.4794 5.23053 25.2845ZM3.6499 19.1506C3.06197 18.8025 2.76477 17.9359 2.63569 17.3011C3.25096 17.1119 4.16273 16.9536 4.7498 17.3011C5.33773 17.6492 5.63492 18.5158 5.76401 19.1506C5.14874 19.3396 4.23689 19.498 3.6499 19.1506ZM9.42759 30.6838C8.62613 30.9863 7.54625 30.5765 6.86874 30.2161C7.13921 29.4976 7.67845 28.4775 8.4796 28.1752C9.28106 27.873 10.361 28.2827 11.0385 28.643C10.768 29.3614 10.2287 30.3815 9.42759 30.6838Z" fill="#18214D"/>
<path d="M32.0659 20.6942V6.65241C32.0659 6.41792 31.9603 6.19589 31.7783 6.04796C31.5963 5.90002 31.3573 5.8419 31.1278 5.88981C30.8605 5.94559 30.5849 5.97387 30.3089 5.97387C28.3526 5.97387 26.6986 4.5762 26.3761 2.65042C26.3133 2.275 25.9883 2 25.6078 2H16.2777C15.8972 2 15.5723 2.275 15.5094 2.65042C15.187 4.57612 13.5329 5.97387 11.5767 5.97387C11.3007 5.97387 11.025 5.94559 10.7577 5.88981C10.5281 5.8419 10.2892 5.90002 10.1072 6.04796C9.92521 6.19589 9.81958 6.41792 9.81958 6.65241V20.6942C9.81958 22.2955 10.7552 23.7718 12.2031 24.4554L20.6102 28.4249C20.7155 28.4747 20.8292 28.4996 20.9428 28.4996C21.0565 28.4996 21.1702 28.4747 21.2755 28.4249L29.6826 24.4554C31.1304 23.7718 32.0659 22.2955 32.0659 20.6942ZM20.9428 26.859L12.8683 23.0465C11.9627 22.619 11.3776 21.6957 11.3776 20.6943V7.52836C11.4439 7.5307 11.5103 7.53187 11.5767 7.53187C14.0716 7.53187 16.2132 5.89604 16.8971 3.55807H24.9885C25.6724 5.89612 27.814 7.53187 30.3089 7.53187C30.3753 7.53187 30.4417 7.5307 30.508 7.52836V20.6942C30.508 21.6956 29.9229 22.619 29.0173 23.0465L20.9428 26.859Z" fill="#18214D"/>
<path d="M14.0261 20.6642V9.811C15.9516 9.21309 17.5818 7.92495 18.609 6.20679H23.2762C24.3034 7.92488 25.9335 9.21301 27.8591 9.811V20.6642L20.9426 23.9299L14.0261 20.6642Z" fill="white"/>
<path d="M21.9995 18H20.632V12.6516L18.9995 13.1653V12.037L21.8528 11H21.9995V18Z" fill="#18214D"/>
</svg>
