<svg width="22" height="22" viewBox="0 0 22 22" fill="none" xmlns="http://www.w3.org/2000/svg">
<g clip-path="url(#clip0)">
<path d="M13.7502 5.95834C13.2442 5.95834 12.8335 5.54768 12.8335 5.04168V3.66668H9.16683V5.04168C9.16683 5.54768 8.75616 5.95834 8.25016 5.95834C7.74416 5.95834 7.3335 5.54768 7.3335 5.04168V3.66668C7.3335 2.65559 8.15574 1.83334 9.16683 1.83334H12.8335C13.8446 1.83334 14.6668 2.65559 14.6668 3.66668V5.04168C14.6668 5.54768 14.2561 5.95834 13.7502 5.95834Z" fill="#F64B2D"/>
<path d="M11.6508 14.0983C11.4858 14.1625 11.2475 14.2083 11 14.2083C10.7525 14.2083 10.5142 14.1625 10.2942 14.08L0 10.6517V17.6458C0 19.0392 1.1275 20.1667 2.52083 20.1667H19.4792C20.8725 20.1667 22 19.0392 22 17.6458V10.6517L11.6508 14.0983Z" fill="#F64B2D"/>
<path d="M22 7.10418V9.20334L11.22 12.7967C11.1467 12.8242 11.0733 12.8333 11 12.8333C10.9267 12.8333 10.8533 12.8242 10.78 12.7967L0 9.20334V7.10418C0 5.71084 1.1275 4.58334 2.52083 4.58334H19.4792C20.8725 4.58334 22 5.71084 22 7.10418Z" fill="#F64B2D"/>
</g>
<defs>
<clipPath id="clip0">
<rect width="22" height="22" fill="white"/>
</clipPath>
</defs>
</svg>
