<svg width="22" height="22" viewBox="0 0 22 22" fill="none" xmlns="http://www.w3.org/2000/svg">
<g clip-path="url(#clip0)">
<path d="M6.50624 5.5561C6.12578 5.5561 5.81738 5.24771 5.81738 4.86724V0.688856C5.81738 0.308392 6.12578 0 6.50624 0C6.8867 0 7.1951 0.308392 7.1951 0.688856V4.86724C7.1951 5.24771 6.8867 5.5561 6.50624 5.5561Z" fill="#F64B2D"/>
<path d="M15.4938 5.5561C15.1133 5.5561 14.8049 5.24771 14.8049 4.86724V0.688856C14.8049 0.308392 15.1133 0 15.4938 0C15.8743 0 16.1827 0.308392 16.1827 0.688856V4.86724C16.1827 5.24771 15.8743 5.5561 15.4938 5.5561Z" fill="#F64B2D"/>
<path d="M1.04443 9.55676V19.0616C1.04443 20.6818 2.3626 22 3.98288 22H18.0168C19.6371 22 20.9553 20.6818 20.9553 19.0616V9.55676H1.04443Z" fill="#F64B2D"/>
<path d="M20.9552 8.17909V5.02766C20.9552 3.40738 19.637 2.08922 18.0168 2.08922H17.5601V4.86724C17.5601 6.00678 16.6331 6.93381 15.4936 6.93381C14.354 6.93381 13.427 6.00678 13.427 4.86724V2.08917H8.57268V4.8672C8.57268 6.00674 7.64566 6.93377 6.50612 6.93377C5.36658 6.93377 4.43955 6.00674 4.43955 4.8672V2.08917H3.98288C2.3626 2.08917 1.04443 3.40734 1.04443 5.02762V8.17905H20.9552V8.17909Z" fill="#F64B2D"/>
</g>
<defs>
<clipPath id="clip0">
<rect width="22" height="22" fill="white"/>
</clipPath>
</defs>
</svg>
