<svg width="142" height="24" viewBox="0 0 142 24" fill="none" xmlns="http://www.w3.org/2000/svg">
<path d="M16.2944 23.0863H14.4213V2.51269H1.8731V23.0863H0V0.913706H16.2944V23.0863Z" fill="#18214D"/>
<path d="M33.625 6.60914V23.0863H31.7976V8.17766H25.0514L24.762 14.3452C24.6402 16.6294 24.4118 18.3756 24.0768 19.5838C23.7417 20.7817 23.2443 21.665 22.5844 22.2335C21.9245 22.802 21.0463 23.0863 19.9498 23.0863H19.2493V21.4721L19.8128 21.4416C20.8585 21.4213 21.6097 20.9137 22.0666 19.9188C22.5235 18.9239 22.8229 17.1472 22.9651 14.5888L23.3001 6.60914H33.625Z" fill="#18214D"/>
<path d="M48.3058 23.0863C48.123 22.5685 48.0063 21.802 47.9555 20.7868C47.3159 21.6193 46.4987 22.264 45.5038 22.7208C44.519 23.1675 43.4733 23.3909 42.3667 23.3909C40.7829 23.3909 39.4987 22.9492 38.5139 22.066C37.5393 21.1827 37.052 20.066 37.052 18.7157C37.052 17.1117 37.717 15.8426 39.0469 14.9086C40.387 13.9746 42.25 13.5076 44.6357 13.5076H47.9403V11.6345C47.9403 10.4569 47.5748 9.533 46.8439 8.86294C46.123 8.18274 45.0672 7.84264 43.6763 7.84264C42.4073 7.84264 41.3565 8.16751 40.5241 8.81726C39.6916 9.467 39.2753 10.2487 39.2753 11.1624L37.4479 11.1472C37.4479 9.83756 38.0571 8.70558 39.2753 7.75127C40.4936 6.7868 41.9911 6.30457 43.7677 6.30457C45.6053 6.30457 47.052 6.7665 48.1078 7.69036C49.1738 8.60406 49.722 9.88325 49.7525 11.5279V19.3249C49.7525 20.9188 49.92 22.1117 50.255 22.9036V23.0863H48.3058ZM42.5799 21.7766C43.7982 21.7766 44.8845 21.4822 45.8388 20.8934C46.8032 20.3046 47.5038 19.5178 47.9403 18.533V14.9086H44.6814C42.8642 14.9289 41.4428 15.264 40.4175 15.9137C39.3921 16.5533 38.8794 17.4365 38.8794 18.5635C38.8794 19.4873 39.2195 20.2538 39.8997 20.8629C40.59 21.4721 41.4835 21.7766 42.5799 21.7766Z" fill="#18214D"/>
<path d="M66.6566 23.0863H64.8292V15.533H55.9511V23.0863H54.1237V6.60914H55.9511V13.9949H64.8292V6.60914H66.6566V23.0863Z" fill="#18214D"/>
<path d="M83.5456 2.8934H83.8197C85.5557 2.8934 87.1243 3.27919 88.5253 4.05076C89.9364 4.81218 91.0329 5.89848 91.8146 7.30964C92.5963 8.72081 92.9872 10.3249 92.9872 12.1218C92.9872 14.7817 92.1344 16.9543 90.4288 18.6396C88.7334 20.3249 86.439 21.1675 83.5456 21.1675V24H79.1446V21.1675H78.8552C77.0989 21.1675 75.5151 20.7919 74.104 20.0406C72.6928 19.2792 71.5963 18.2132 70.8146 16.8426C70.043 15.4721 69.6573 13.9086 69.6573 12.1523C69.6573 10.3756 70.043 8.7868 70.8146 7.38579C71.5862 5.98477 72.6674 4.8934 74.0583 4.11168C75.4491 3.3198 77.0024 2.91371 78.7182 2.8934H79.1446V0H83.5456V2.8934ZM78.8552 6.68528C77.3425 6.68528 76.1496 7.16244 75.2766 8.11675C74.4136 9.07107 73.9821 10.4162 73.9821 12.1523C73.9821 13.7766 74.4136 15.0558 75.2766 15.9898C76.1395 16.9137 77.3527 17.3756 78.9161 17.3756H79.1446V6.68528H78.8552ZM83.5456 6.68528V17.3756H83.8502C85.3425 17.3756 86.5151 16.9086 87.3679 15.9746C88.2309 15.0305 88.6623 13.7462 88.6623 12.1218C88.6623 10.4264 88.241 9.09645 87.3984 8.13198C86.5557 7.16751 85.3476 6.68528 83.774 6.68528H83.5456Z" fill="#18214D"/>
<path d="M104.622 23.0863C104.419 22.6904 104.272 22.198 104.181 21.6091C103.115 22.797 101.729 23.3909 100.023 23.3909C98.4091 23.3909 97.069 22.9239 96.003 21.9898C94.9472 21.0558 94.4193 19.8782 94.4193 18.4569C94.4193 16.7107 95.064 15.3706 96.3533 14.4365C97.6528 13.5025 99.5259 13.0305 101.973 13.0203H103.998V12.0761C103.998 11.3147 103.8 10.7056 103.404 10.2487C103.018 9.79188 102.404 9.56345 101.561 9.56345C100.82 9.56345 100.237 9.74112 99.8102 10.0964C99.3939 10.4518 99.1858 10.9391 99.1858 11.5584H94.7848C94.7848 10.6041 95.0792 9.72081 95.668 8.90863C96.2569 8.09645 97.0893 7.46193 98.1655 7.00508C99.2416 6.53807 100.45 6.30457 101.79 6.30457C103.82 6.30457 105.429 6.81726 106.617 7.84264C107.815 8.85787 108.414 10.2893 108.414 12.1371V19.2792C108.424 20.8426 108.643 22.0254 109.069 22.8274V23.0863H104.622ZM100.983 20.0254C101.632 20.0254 102.231 19.8832 102.78 19.599C103.328 19.3046 103.734 18.9137 103.998 18.4264V15.5939H102.353C100.15 15.5939 98.9777 16.3553 98.8355 17.8782L98.8203 18.1371C98.8203 18.6853 99.0132 19.1371 99.399 19.4924C99.7848 19.8477 100.313 20.0254 100.983 20.0254Z" fill="#18214D"/>
<path d="M117.628 17.0102H115.862V23.0863H111.461V6.60914H115.862V12.8071H117.43L121.024 6.60914H126.582L121.191 14.4518L127.085 23.0863H121.222L117.628 17.0102Z" fill="#18214D"/>
<path d="M141.796 10.1421H136.512V23.0863H132.096V10.1421H126.903V6.60914H141.796V10.1421Z" fill="#18214D"/>
</svg>
